<mxfile host="app.diagrams.net" modified="2021-09-30T02:44:32.581Z" agent="5.0 (Windows NT 10.0; Win64; x64) AppleWebKit/537.36 (KHTML, like Gecko) Chrome/93.0.4577.82 Safari/537.36" etag="EJPto_vvVQsr-9olBSQt" version="15.3.8" type="github">
  <diagram id="ek9SvoUbZJLgTX0v-QCz" name="Page-1">
    <mxGraphModel dx="2357" dy="-212" grid="0" gridSize="10" guides="1" tooltips="1" connect="1" arrows="1" fold="1" page="1" pageScale="1" pageWidth="827" pageHeight="1169" math="0" shadow="0">
      <root>
        <mxCell id="0" />
        <mxCell id="1" parent="0" />
        <mxCell id="XL3TBwz9Qjr_CS2KYYFU-18" value="" style="rounded=1;arcSize=10;dashed=0;fillColor=none;gradientColor=none;strokeWidth=2;" vertex="1" parent="1">
          <mxGeometry x="-736" y="1486" width="1240" height="1075" as="geometry" />
        </mxCell>
        <mxCell id="XL3TBwz9Qjr_CS2KYYFU-16" value="" style="rounded=1;arcSize=10;dashed=0;fillColor=none;gradientColor=none;strokeWidth=2;" vertex="1" parent="1">
          <mxGeometry x="-637.79" y="1686" width="1061.79" height="770" as="geometry" />
        </mxCell>
        <mxCell id="XL3TBwz9Qjr_CS2KYYFU-17" value="" style="rounded=1;arcSize=10;dashed=0;fillColor=none;gradientColor=none;strokeWidth=2;" vertex="1" parent="1">
          <mxGeometry x="-500.56" y="2183.62" width="262.49" height="142" as="geometry" />
        </mxCell>
        <mxCell id="XL3TBwz9Qjr_CS2KYYFU-19" value="asg_ws" style="rounded=1;arcSize=10;dashed=1;strokeColor=#999999;fillColor=none;gradientColor=none;dashPattern=8 4;strokeWidth=2;labelPosition=center;verticalLabelPosition=bottom;align=center;verticalAlign=top;fontColor=#000000;" vertex="1" parent="1">
          <mxGeometry x="-461" y="1915.26" width="723" height="161.56" as="geometry" />
        </mxCell>
        <mxCell id="XL3TBwz9Qjr_CS2KYYFU-20" value="" style="rounded=1;arcSize=10;dashed=1;strokeColor=#F59D56;fillColor=none;gradientColor=none;dashPattern=8 4;strokeWidth=2;" vertex="1" parent="1">
          <mxGeometry x="-546" y="1814.25" width="346" height="559.75" as="geometry" />
        </mxCell>
        <mxCell id="XL3TBwz9Qjr_CS2KYYFU-21" value="" style="rounded=1;arcSize=10;dashed=0;fillColor=none;gradientColor=none;strokeWidth=2;" vertex="1" parent="1">
          <mxGeometry x="-499.72999999999996" y="1876.82" width="260.83" height="240" as="geometry" />
        </mxCell>
        <mxCell id="XL3TBwz9Qjr_CS2KYYFU-22" value="" style="rounded=1;arcSize=10;dashed=1;strokeColor=#F59D56;fillColor=none;gradientColor=none;dashPattern=8 4;strokeWidth=2;" vertex="1" parent="1">
          <mxGeometry y="1814" width="345" height="560" as="geometry" />
        </mxCell>
        <mxCell id="XL3TBwz9Qjr_CS2KYYFU-23" value="&lt;span&gt;vpc10&lt;/span&gt;&lt;span&gt;&lt;br&gt;10.0.0.0/16&lt;/span&gt;" style="dashed=0;html=1;shape=mxgraph.aws3.virtual_private_cloud;fillColor=#F58536;gradientColor=none;dashed=0;labelPosition=center;verticalLabelPosition=bottom;align=center;verticalAlign=top;labelBackgroundColor=#ffffff;labelBorderColor=#FFFFFF;shadow=1;" vertex="1" parent="1">
          <mxGeometry x="-589.9999999999999" y="1666.0000000000002" width="52" height="36" as="geometry" />
        </mxCell>
        <mxCell id="XL3TBwz9Qjr_CS2KYYFU-24" value="&lt;font color=&quot;#ff8000&quot;&gt;&lt;b&gt;us-east-1&lt;/b&gt;&lt;/font&gt;" style="dashed=0;html=1;shape=mxgraph.aws3.cloud;fillColor=#F58536;gradientColor=none;dashed=0;shadow=1;labelPosition=center;verticalLabelPosition=bottom;align=center;verticalAlign=top;" vertex="1" parent="1">
          <mxGeometry x="-653" y="1466" width="52" height="36" as="geometry" />
        </mxCell>
        <mxCell id="XL3TBwz9Qjr_CS2KYYFU-25" value="&lt;span style=&quot;text-align: left&quot;&gt;&amp;nbsp;sn_vpc10_pub_1a&amp;nbsp;&lt;br&gt;&amp;nbsp;10.0.1.0/24&lt;/span&gt;" style="dashed=0;html=1;shape=mxgraph.aws3.permissions;fillColor=#D9A741;gradientColor=none;dashed=0;shadow=1;labelPosition=right;verticalLabelPosition=middle;align=left;verticalAlign=middle;labelBackgroundColor=#ffffff;labelBorderColor=#FFFFFF;" vertex="1" parent="1">
          <mxGeometry x="-490.4600000000001" y="1866.2" width="17.14" height="20" as="geometry" />
        </mxCell>
        <mxCell id="XL3TBwz9Qjr_CS2KYYFU-26" value="" style="rounded=1;arcSize=10;dashed=0;fillColor=none;gradientColor=none;strokeWidth=2;" vertex="1" parent="1">
          <mxGeometry x="41.1" y="1872.0000000000002" width="260" height="244.82" as="geometry" />
        </mxCell>
        <mxCell id="XL3TBwz9Qjr_CS2KYYFU-27" value="us-east-1c" style="text;html=1;strokeColor=none;fillColor=none;align=center;verticalAlign=middle;whiteSpace=wrap;rounded=0;fontStyle=1;fontColor=#FF8000;" vertex="1" parent="1">
          <mxGeometry x="25" y="1794" width="270" height="20" as="geometry" />
        </mxCell>
        <mxCell id="XL3TBwz9Qjr_CS2KYYFU-29" value="Internet" style="aspect=fixed;perimeter=ellipsePerimeter;html=1;align=left;shadow=0;dashed=0;spacingTop=3;image;image=img/lib/active_directory/internet_cloud.svg;fontSize=12;fontColor=#000000;labelPosition=right;verticalLabelPosition=middle;verticalAlign=middle;" vertex="1" parent="1">
          <mxGeometry x="-181.5" y="1351" width="131" height="82.53" as="geometry" />
        </mxCell>
        <mxCell id="XL3TBwz9Qjr_CS2KYYFU-30" value="ws_1" style="outlineConnect=0;dashed=0;verticalLabelPosition=middle;verticalAlign=middle;align=right;html=1;shape=mxgraph.aws3.instance;fillColor=#F58534;shadow=1;sketch=0;labelPosition=left;" vertex="1" parent="1">
          <mxGeometry x="-418" y="1979" width="38.1" height="40" as="geometry" />
        </mxCell>
        <mxCell id="XL3TBwz9Qjr_CS2KYYFU-31" value="&amp;nbsp;ws_3" style="outlineConnect=0;dashed=0;verticalLabelPosition=middle;verticalAlign=middle;align=left;html=1;shape=mxgraph.aws3.instance;fillColor=#F58534;shadow=1;sketch=0;labelPosition=right;" vertex="1" parent="1">
          <mxGeometry x="79.16" y="1982.25" width="38.1" height="40" as="geometry" />
        </mxCell>
        <mxCell id="XL3TBwz9Qjr_CS2KYYFU-32" value="ws_2" style="outlineConnect=0;dashed=0;verticalLabelPosition=middle;verticalAlign=middle;align=right;html=1;shape=mxgraph.aws3.instance;fillColor=#F58534;shadow=1;sketch=0;labelPosition=left;" vertex="1" parent="1">
          <mxGeometry x="-319.7699999999999" y="1979" width="38.1" height="40" as="geometry" />
        </mxCell>
        <mxCell id="XL3TBwz9Qjr_CS2KYYFU-33" value="&amp;nbsp;ws_4" style="outlineConnect=0;dashed=0;verticalLabelPosition=middle;verticalAlign=middle;align=left;html=1;shape=mxgraph.aws3.instance;fillColor=#F58534;shadow=1;sketch=0;labelPosition=right;" vertex="1" parent="1">
          <mxGeometry x="174.99999999999994" y="1982.25" width="38.1" height="40" as="geometry" />
        </mxCell>
        <mxCell id="XL3TBwz9Qjr_CS2KYYFU-34" value="&lt;span style=&quot;text-align: left&quot;&gt;&amp;nbsp;sn_vpc10_pub_1c&amp;nbsp;&lt;br&gt;&amp;nbsp;10.0.2.0/24&lt;/span&gt;" style="dashed=0;html=1;shape=mxgraph.aws3.permissions;fillColor=#D9A741;gradientColor=none;dashed=0;shadow=1;align=left;labelBackgroundColor=#ffffff;labelBorderColor=#FFFFFF;labelPosition=right;verticalLabelPosition=middle;verticalAlign=middle;" vertex="1" parent="1">
          <mxGeometry x="162.52999999999992" y="1860.0000000000002" width="17.14" height="20" as="geometry" />
        </mxCell>
        <mxCell id="XL3TBwz9Qjr_CS2KYYFU-37" value="us-east-1a" style="text;html=1;strokeColor=none;fillColor=none;align=center;verticalAlign=middle;whiteSpace=wrap;rounded=0;fontStyle=1;fontColor=#FF8000;" vertex="1" parent="1">
          <mxGeometry x="-509.99999999999994" y="1794" width="270" height="20" as="geometry" />
        </mxCell>
        <mxCell id="XL3TBwz9Qjr_CS2KYYFU-39" value="&lt;span style=&quot;text-align: left&quot;&gt;&amp;nbsp;sn_vpc10_priv_1a&amp;nbsp;&lt;br&gt;&amp;nbsp;10.0.3.0/24&lt;/span&gt;" style="dashed=0;html=1;shape=mxgraph.aws3.permissions;fillColor=#D9A741;gradientColor=none;dashed=0;shadow=1;labelPosition=right;verticalLabelPosition=middle;align=left;verticalAlign=middle;labelBackgroundColor=#ffffff;labelBorderColor=#FFFFFF;" vertex="1" parent="1">
          <mxGeometry x="-491.29000000000013" y="2173" width="17.14" height="20" as="geometry" />
        </mxCell>
        <mxCell id="XL3TBwz9Qjr_CS2KYYFU-40" value="" style="rounded=1;arcSize=10;dashed=0;fillColor=none;gradientColor=none;strokeWidth=2;" vertex="1" parent="1">
          <mxGeometry x="41.93" y="2183.62" width="260" height="142" as="geometry" />
        </mxCell>
        <mxCell id="XL3TBwz9Qjr_CS2KYYFU-41" value="&lt;span style=&quot;text-align: left&quot;&gt;&amp;nbsp;sn_vpc10_priv_1c&amp;nbsp;&lt;br&gt;&amp;nbsp;10.0.4.0/24&lt;/span&gt;" style="dashed=0;html=1;shape=mxgraph.aws3.permissions;fillColor=#D9A741;gradientColor=none;dashed=0;shadow=1;labelPosition=right;verticalLabelPosition=middle;align=left;verticalAlign=middle;labelBackgroundColor=#ffffff;labelBorderColor=#FFFFFF;" vertex="1" parent="1">
          <mxGeometry x="163.92999999999986" y="2173" width="17.14" height="20" as="geometry" />
        </mxCell>
        <mxCell id="XL3TBwz9Qjr_CS2KYYFU-42" value="sync" style="edgeStyle=orthogonalEdgeStyle;rounded=0;orthogonalLoop=1;jettySize=auto;html=1;exitX=1;exitY=0.5;exitDx=0;exitDy=0;exitPerimeter=0;entryX=0;entryY=0.5;entryDx=0;entryDy=0;entryPerimeter=0;fontColor=#999999;startArrow=none;startFill=0;endArrow=none;endFill=0;strokeColor=#999999;dashed=1;" edge="1" parent="1" source="XL3TBwz9Qjr_CS2KYYFU-43" target="XL3TBwz9Qjr_CS2KYYFU-44">
          <mxGeometry relative="1" as="geometry" />
        </mxCell>
        <mxCell id="XL3TBwz9Qjr_CS2KYYFU-43" value="" style="outlineConnect=0;dashed=0;verticalLabelPosition=bottom;verticalAlign=top;align=center;html=1;shape=mxgraph.aws3.rds_db_instance;fillColor=#2E73B8;gradientColor=none;" vertex="1" parent="1">
          <mxGeometry x="-347.5" y="2221.62" width="49.5" height="66" as="geometry" />
        </mxCell>
        <mxCell id="XL3TBwz9Qjr_CS2KYYFU-44" value="" style="outlineConnect=0;dashed=0;verticalLabelPosition=bottom;verticalAlign=top;align=center;html=1;shape=mxgraph.aws3.rds_db_instance_standby_multi_az;fillColor=#2E73B8;gradientColor=none;" vertex="1" parent="1">
          <mxGeometry x="97.99999999999997" y="2221.62" width="49.5" height="66" as="geometry" />
        </mxCell>
        <mxCell id="XL3TBwz9Qjr_CS2KYYFU-45" value="elb_ws" style="outlineConnect=0;dashed=0;verticalLabelPosition=middle;verticalAlign=middle;align=right;html=1;shape=mxgraph.aws3.classic_load_balancer;fillColor=#F58534;gradientColor=none;labelPosition=left;labelBackgroundColor=default;labelBorderColor=#FFFFFF;whiteSpace=wrap;" vertex="1" parent="1">
          <mxGeometry x="-119.63000000000002" y="1824.2" width="40.25" height="42" as="geometry" />
        </mxCell>
        <mxCell id="XL3TBwz9Qjr_CS2KYYFU-46" value="&amp;nbsp;sns_app&amp;nbsp;" style="sketch=0;points=[[0,0,0],[0.25,0,0],[0.5,0,0],[0.75,0,0],[1,0,0],[0,1,0],[0.25,1,0],[0.5,1,0],[0.75,1,0],[1,1,0],[0,0.25,0],[0,0.5,0],[0,0.75,0],[1,0.25,0],[1,0.5,0],[1,0.75,0]];outlineConnect=0;fontColor=#232F3E;gradientColor=#FF4F8B;gradientDirection=north;fillColor=#BC1356;strokeColor=#ffffff;dashed=0;verticalLabelPosition=middle;verticalAlign=middle;align=right;html=1;fontSize=12;fontStyle=0;aspect=fixed;shape=mxgraph.aws4.resourceIcon;resIcon=mxgraph.aws4.sns;labelPosition=left;" vertex="1" parent="1">
          <mxGeometry x="48.00000000000004" y="1565" width="44" height="44" as="geometry" />
        </mxCell>
        <mxCell id="XL3TBwz9Qjr_CS2KYYFU-48" style="edgeStyle=orthogonalEdgeStyle;rounded=0;orthogonalLoop=1;jettySize=auto;html=1;fillColor=#008a00;startArrow=none;startFill=0;endArrow=classic;endFill=1;elbow=vertical;curved=1;strokeColor=#005700;entryX=0;entryY=0;entryDx=0;entryDy=0;exitX=1.06;exitY=0.6;exitDx=0;exitDy=0;exitPerimeter=0;" edge="1" parent="1" source="XL3TBwz9Qjr_CS2KYYFU-67" target="XL3TBwz9Qjr_CS2KYYFU-29">
          <mxGeometry relative="1" as="geometry">
            <mxPoint x="-156.00000000001023" y="1571.75" as="sourcePoint" />
            <mxPoint x="-123" y="1268" as="targetPoint" />
          </mxGeometry>
        </mxCell>
        <mxCell id="XL3TBwz9Qjr_CS2KYYFU-49" style="edgeStyle=orthogonalEdgeStyle;rounded=0;orthogonalLoop=1;jettySize=auto;html=1;entryX=0.5;entryY=0;entryDx=0;entryDy=0;entryPerimeter=0;fillColor=#008a00;startArrow=none;startFill=0;endArrow=classic;endFill=1;elbow=vertical;curved=1;strokeColor=#005700;exitX=0.5;exitY=1;exitDx=0;exitDy=0;exitPerimeter=0;" edge="1" parent="1" source="XL3TBwz9Qjr_CS2KYYFU-28" target="XL3TBwz9Qjr_CS2KYYFU-45">
          <mxGeometry relative="1" as="geometry">
            <mxPoint x="-116" y="1766" as="sourcePoint" />
            <mxPoint x="-107.375" y="1716" as="targetPoint" />
          </mxGeometry>
        </mxCell>
        <mxCell id="XL3TBwz9Qjr_CS2KYYFU-50" style="edgeStyle=orthogonalEdgeStyle;rounded=0;orthogonalLoop=1;jettySize=auto;html=1;fillColor=#d80073;startArrow=none;startFill=0;endArrow=classic;endFill=1;elbow=vertical;curved=1;strokeColor=#A50040;entryX=0.5;entryY=0.02;entryDx=0;entryDy=0;entryPerimeter=0;exitX=0.5;exitY=1;exitDx=0;exitDy=0;exitPerimeter=0;fontColor=#CCE5FF;" edge="1" parent="1" source="XL3TBwz9Qjr_CS2KYYFU-30" target="XL3TBwz9Qjr_CS2KYYFU-43">
          <mxGeometry relative="1" as="geometry">
            <mxPoint x="-380" y="2042" as="sourcePoint" />
            <mxPoint x="-369.8571428571429" y="1989.02" as="targetPoint" />
            <Array as="points">
              <mxPoint x="-381" y="2129" />
              <mxPoint x="-323" y="2129" />
            </Array>
          </mxGeometry>
        </mxCell>
        <mxCell id="XL3TBwz9Qjr_CS2KYYFU-51" style="edgeStyle=orthogonalEdgeStyle;rounded=0;orthogonalLoop=1;jettySize=auto;html=1;fillColor=#d80073;startArrow=none;startFill=0;endArrow=classic;endFill=1;elbow=vertical;curved=1;strokeColor=#A50040;entryX=0.5;entryY=0.02;entryDx=0;entryDy=0;entryPerimeter=0;exitX=0.5;exitY=1;exitDx=0;exitDy=0;exitPerimeter=0;fontColor=#CCE5FF;" edge="1" parent="1" source="XL3TBwz9Qjr_CS2KYYFU-32" target="XL3TBwz9Qjr_CS2KYYFU-43">
          <mxGeometry relative="1" as="geometry">
            <mxPoint x="-370.0000000000002" y="2052" as="sourcePoint" />
            <mxPoint x="-360.40999999999985" y="2258.42" as="targetPoint" />
          </mxGeometry>
        </mxCell>
        <mxCell id="XL3TBwz9Qjr_CS2KYYFU-52" style="edgeStyle=orthogonalEdgeStyle;rounded=0;orthogonalLoop=1;jettySize=auto;html=1;fillColor=#d80073;startArrow=none;startFill=0;endArrow=classic;endFill=1;elbow=vertical;curved=1;strokeColor=#A50040;entryX=0.5;entryY=0.02;entryDx=0;entryDy=0;entryPerimeter=0;exitX=0.5;exitY=1;exitDx=0;exitDy=0;exitPerimeter=0;fontColor=#CCE5FF;" edge="1" parent="1" source="XL3TBwz9Qjr_CS2KYYFU-31" target="XL3TBwz9Qjr_CS2KYYFU-43">
          <mxGeometry relative="1" as="geometry">
            <mxPoint x="-308.93000000000006" y="2009" as="sourcePoint" />
            <mxPoint x="-360.40999999999985" y="2258.42" as="targetPoint" />
          </mxGeometry>
        </mxCell>
        <mxCell id="XL3TBwz9Qjr_CS2KYYFU-53" style="edgeStyle=orthogonalEdgeStyle;rounded=0;orthogonalLoop=1;jettySize=auto;html=1;fillColor=#d80073;startArrow=none;startFill=0;endArrow=classic;endFill=1;elbow=vertical;curved=1;strokeColor=#A50040;exitX=0.5;exitY=1;exitDx=0;exitDy=0;exitPerimeter=0;fontColor=#CCE5FF;" edge="1" parent="1" source="XL3TBwz9Qjr_CS2KYYFU-33" target="XL3TBwz9Qjr_CS2KYYFU-43">
          <mxGeometry relative="1" as="geometry">
            <mxPoint x="90" y="2012.2857142857142" as="sourcePoint" />
            <mxPoint x="-360.40999999999985" y="2258.42" as="targetPoint" />
          </mxGeometry>
        </mxCell>
        <mxCell id="XL3TBwz9Qjr_CS2KYYFU-54" style="edgeStyle=orthogonalEdgeStyle;rounded=0;orthogonalLoop=1;jettySize=auto;html=1;fillColor=#6a00ff;startArrow=classic;startFill=1;endArrow=none;endFill=0;elbow=vertical;curved=1;strokeColor=#3700CC;exitX=0.5;exitY=1;exitDx=0;exitDy=0;exitPerimeter=0;" edge="1" parent="1" source="XL3TBwz9Qjr_CS2KYYFU-46" target="XL3TBwz9Qjr_CS2KYYFU-62">
          <mxGeometry relative="1" as="geometry">
            <mxPoint x="-145.70000000000005" y="1487.5000000000005" as="sourcePoint" />
            <mxPoint x="-145.70500000000015" y="1714.5900000000001" as="targetPoint" />
          </mxGeometry>
        </mxCell>
        <mxCell id="XL3TBwz9Qjr_CS2KYYFU-56" style="edgeStyle=orthogonalEdgeStyle;rounded=0;orthogonalLoop=1;jettySize=auto;html=1;entryX=0.5;entryY=0;entryDx=0;entryDy=0;entryPerimeter=0;fillColor=#008a00;startArrow=none;startFill=0;endArrow=classic;endFill=1;elbow=vertical;curved=1;strokeColor=#005700;exitX=0.5;exitY=1;exitDx=0;exitDy=0;exitPerimeter=0;" edge="1" parent="1" source="XL3TBwz9Qjr_CS2KYYFU-45" target="XL3TBwz9Qjr_CS2KYYFU-30">
          <mxGeometry relative="1" as="geometry">
            <mxPoint x="-165.73499999999981" y="1735.9999999999998" as="sourcePoint" />
            <mxPoint x="-85.02499999999978" y="1902.82" as="targetPoint" />
          </mxGeometry>
        </mxCell>
        <mxCell id="XL3TBwz9Qjr_CS2KYYFU-57" style="edgeStyle=orthogonalEdgeStyle;rounded=0;orthogonalLoop=1;jettySize=auto;html=1;entryX=0.5;entryY=0;entryDx=0;entryDy=0;entryPerimeter=0;fillColor=#008a00;startArrow=none;startFill=0;endArrow=classic;endFill=1;elbow=vertical;curved=1;strokeColor=#005700;exitX=0.5;exitY=1;exitDx=0;exitDy=0;exitPerimeter=0;" edge="1" parent="1" source="XL3TBwz9Qjr_CS2KYYFU-45" target="XL3TBwz9Qjr_CS2KYYFU-32">
          <mxGeometry relative="1" as="geometry">
            <mxPoint x="-85.025" y="1944.82" as="sourcePoint" />
            <mxPoint x="-368.77999999999986" y="2011.84" as="targetPoint" />
          </mxGeometry>
        </mxCell>
        <mxCell id="XL3TBwz9Qjr_CS2KYYFU-58" style="edgeStyle=orthogonalEdgeStyle;rounded=0;orthogonalLoop=1;jettySize=auto;html=1;entryX=0.5;entryY=0;entryDx=0;entryDy=0;entryPerimeter=0;fillColor=#008a00;startArrow=none;startFill=0;endArrow=classic;endFill=1;elbow=vertical;curved=1;strokeColor=#005700;exitX=0.5;exitY=1;exitDx=0;exitDy=0;exitPerimeter=0;" edge="1" parent="1" source="XL3TBwz9Qjr_CS2KYYFU-45" target="XL3TBwz9Qjr_CS2KYYFU-31">
          <mxGeometry relative="1" as="geometry">
            <mxPoint x="-85.025" y="1944.82" as="sourcePoint" />
            <mxPoint x="-288.77999999999986" y="2011.84" as="targetPoint" />
          </mxGeometry>
        </mxCell>
        <mxCell id="XL3TBwz9Qjr_CS2KYYFU-59" style="edgeStyle=orthogonalEdgeStyle;rounded=0;orthogonalLoop=1;jettySize=auto;html=1;fillColor=#008a00;startArrow=none;startFill=0;endArrow=classic;endFill=1;elbow=vertical;curved=1;strokeColor=#005700;exitX=0.5;exitY=1;exitDx=0;exitDy=0;exitPerimeter=0;entryX=0.5;entryY=0;entryDx=0;entryDy=0;entryPerimeter=0;" edge="1" parent="1" source="XL3TBwz9Qjr_CS2KYYFU-45" target="XL3TBwz9Qjr_CS2KYYFU-33">
          <mxGeometry relative="1" as="geometry">
            <mxPoint x="-85.025" y="1944.82" as="sourcePoint" />
            <mxPoint x="180.1" y="1968.82" as="targetPoint" />
          </mxGeometry>
        </mxCell>
        <mxCell id="XL3TBwz9Qjr_CS2KYYFU-60" style="edgeStyle=orthogonalEdgeStyle;rounded=0;orthogonalLoop=1;jettySize=auto;html=1;fillColor=#6a00ff;startArrow=classic;startFill=1;endArrow=none;endFill=0;elbow=vertical;curved=1;strokeColor=#3700CC;entryX=0.75;entryY=0;entryDx=0;entryDy=0;" edge="1" parent="1" target="XL3TBwz9Qjr_CS2KYYFU-29">
          <mxGeometry relative="1" as="geometry">
            <mxPoint x="-2" y="1283" as="sourcePoint" />
            <mxPoint x="-45.289999999999964" y="1566" as="targetPoint" />
          </mxGeometry>
        </mxCell>
        <mxCell id="XL3TBwz9Qjr_CS2KYYFU-61" style="edgeStyle=orthogonalEdgeStyle;rounded=0;orthogonalLoop=1;jettySize=auto;html=1;fillColor=#6a00ff;startArrow=classic;startFill=1;endArrow=none;endFill=0;elbow=vertical;curved=1;strokeColor=#3700CC;entryX=0;entryY=0.5;entryDx=0;entryDy=0;entryPerimeter=0;" edge="1" parent="1" source="XL3TBwz9Qjr_CS2KYYFU-62" target="XL3TBwz9Qjr_CS2KYYFU-31">
          <mxGeometry relative="1" as="geometry">
            <mxPoint x="-52" y="1731" as="sourcePoint" />
            <mxPoint x="-26.289999999999964" y="1906.75" as="targetPoint" />
          </mxGeometry>
        </mxCell>
        <mxCell id="XL3TBwz9Qjr_CS2KYYFU-62" value="vpc_ep_vpc10" style="sketch=0;outlineConnect=0;fillColor=#f0a30a;strokeColor=#BD7000;dashed=0;verticalLabelPosition=bottom;verticalAlign=top;align=center;html=1;fontSize=12;fontStyle=0;aspect=fixed;pointerEvents=1;shape=mxgraph.aws4.endpoints;labelPosition=center;labelBackgroundColor=default;labelBorderColor=#FFFFFF;whiteSpace=wrap;fontColor=#000000;" vertex="1" parent="1">
          <mxGeometry x="-74.70000000000003" y="1709" width="41.41" height="41.41" as="geometry" />
        </mxCell>
        <mxCell id="XL3TBwz9Qjr_CS2KYYFU-65" style="edgeStyle=orthogonalEdgeStyle;rounded=0;orthogonalLoop=1;jettySize=auto;html=1;fillColor=#6a00ff;startArrow=classic;startFill=1;endArrow=none;endFill=0;elbow=vertical;curved=1;strokeColor=#3700CC;entryX=1;entryY=0.5;entryDx=0;entryDy=0;entryPerimeter=0;" edge="1" parent="1" source="XL3TBwz9Qjr_CS2KYYFU-62" target="XL3TBwz9Qjr_CS2KYYFU-32">
          <mxGeometry relative="1" as="geometry">
            <mxPoint x="-66" y="1751.6666666666665" as="sourcePoint" />
            <mxPoint x="-369.8333333333335" y="1989.02" as="targetPoint" />
          </mxGeometry>
        </mxCell>
        <mxCell id="XL3TBwz9Qjr_CS2KYYFU-66" value="User mobile" style="html=1;verticalLabelPosition=bottom;align=center;labelBackgroundColor=#ffffff;verticalAlign=top;strokeWidth=2;strokeColor=#0080F0;shadow=0;dashed=0;shape=mxgraph.ios7.icons.smartphone;fontColor=#000000;" vertex="1" parent="1">
          <mxGeometry y="1269" width="18" height="30" as="geometry" />
        </mxCell>
        <mxCell id="XL3TBwz9Qjr_CS2KYYFU-67" value="User browser" style="aspect=fixed;html=1;points=[];align=center;image;fontSize=12;image=img/lib/azure2/general/Browser.svg;fontColor=#000000;" vertex="1" parent="1">
          <mxGeometry x="-265" y="1259" width="65" height="52" as="geometry" />
        </mxCell>
        <mxCell id="XL3TBwz9Qjr_CS2KYYFU-68" style="edgeStyle=orthogonalEdgeStyle;rounded=0;orthogonalLoop=1;jettySize=auto;html=1;fillColor=#6a00ff;startArrow=classic;startFill=1;endArrow=none;endFill=0;elbow=vertical;curved=1;strokeColor=#3700CC;entryX=0.5;entryY=0;entryDx=0;entryDy=0;entryPerimeter=0;exitX=0.75;exitY=1;exitDx=0;exitDy=0;" edge="1" parent="1" source="XL3TBwz9Qjr_CS2KYYFU-29" target="XL3TBwz9Qjr_CS2KYYFU-46">
          <mxGeometry relative="1" as="geometry">
            <mxPoint x="-116" y="1482" as="sourcePoint" />
            <mxPoint x="-45.289999999999964" y="1731" as="targetPoint" />
            <Array as="points">
              <mxPoint x="-87" y="1507" />
              <mxPoint x="70" y="1507" />
            </Array>
          </mxGeometry>
        </mxCell>
        <mxCell id="XL3TBwz9Qjr_CS2KYYFU-70" style="edgeStyle=orthogonalEdgeStyle;rounded=0;orthogonalLoop=1;jettySize=auto;html=1;fillColor=#008a00;startArrow=none;startFill=0;endArrow=classic;endFill=1;elbow=vertical;curved=1;strokeColor=#005700;entryX=0.5;entryY=0;entryDx=0;entryDy=0;exitX=0.25;exitY=1;exitDx=0;exitDy=0;entryPerimeter=0;" edge="1" parent="1" source="XL3TBwz9Qjr_CS2KYYFU-29" target="XL3TBwz9Qjr_CS2KYYFU-28">
          <mxGeometry relative="1" as="geometry">
            <mxPoint x="-186.0999999999999" y="1300.2" as="sourcePoint" />
            <mxPoint x="-140.1022691243602" y="1376.2680325448425" as="targetPoint" />
            <Array as="points">
              <mxPoint x="-145" y="1467" />
              <mxPoint x="-279" y="1467" />
            </Array>
          </mxGeometry>
        </mxCell>
        <mxCell id="XL3TBwz9Qjr_CS2KYYFU-28" value="&lt;span&gt;&amp;nbsp;igw_vpc10&amp;nbsp;&lt;/span&gt;" style="outlineConnect=0;dashed=0;verticalLabelPosition=bottom;verticalAlign=top;align=center;html=1;shape=mxgraph.aws3.internet_gateway;fillColor=#F58534;gradientColor=none;fontColor=#000000;fontSize=12;labelBackgroundColor=#ffffff;whiteSpace=wrap;labelBorderColor=#FFFFFF;shadow=1;labelPosition=center;" vertex="1" parent="1">
          <mxGeometry x="-298.00000000000006" y="1665.9999999999998" width="38.33" height="40" as="geometry" />
        </mxCell>
        <mxCell id="XL3TBwz9Qjr_CS2KYYFU-76" style="edgeStyle=orthogonalEdgeStyle;rounded=0;orthogonalLoop=1;jettySize=auto;html=1;fillColor=#6a00ff;startArrow=classic;startFill=1;endArrow=none;endFill=0;elbow=vertical;curved=1;strokeColor=#3700CC;entryX=0;entryY=0.5;entryDx=0;entryDy=0;entryPerimeter=0;" edge="1" parent="1" source="XL3TBwz9Qjr_CS2KYYFU-62" target="XL3TBwz9Qjr_CS2KYYFU-33">
          <mxGeometry relative="1" as="geometry">
            <mxPoint x="-23.289999999999964" y="1739.7142857142858" as="sourcePoint" />
            <mxPoint x="91.09999999999991" y="2035.09" as="targetPoint" />
            <Array as="points">
              <mxPoint x="120" y="1730" />
              <mxPoint x="120" y="2001" />
            </Array>
          </mxGeometry>
        </mxCell>
        <mxCell id="XL3TBwz9Qjr_CS2KYYFU-77" style="edgeStyle=orthogonalEdgeStyle;rounded=0;orthogonalLoop=1;jettySize=auto;html=1;fillColor=#6a00ff;startArrow=classic;startFill=1;endArrow=none;endFill=0;elbow=vertical;curved=1;strokeColor=#3700CC;entryX=1;entryY=0.5;entryDx=0;entryDy=0;entryPerimeter=0;" edge="1" parent="1" source="XL3TBwz9Qjr_CS2KYYFU-62" target="XL3TBwz9Qjr_CS2KYYFU-30">
          <mxGeometry relative="1" as="geometry">
            <mxPoint x="-64.70000000000005" y="1739.7142857142858" as="sourcePoint" />
            <mxPoint x="-269.7299999999998" y="2031.8399999999997" as="targetPoint" />
            <Array as="points">
              <mxPoint x="-309" y="1730" />
              <mxPoint x="-309" y="1999" />
            </Array>
          </mxGeometry>
        </mxCell>
        <mxCell id="XL3TBwz9Qjr_CS2KYYFU-78" style="edgeStyle=orthogonalEdgeStyle;rounded=0;orthogonalLoop=1;jettySize=auto;html=1;fillColor=#008a00;startArrow=none;startFill=0;endArrow=classic;endFill=1;elbow=vertical;curved=1;strokeColor=#005700;exitX=1.06;exitY=0.6;exitDx=0;exitDy=0;exitPerimeter=0;" edge="1" parent="1">
          <mxGeometry relative="1" as="geometry">
            <mxPoint x="194.0000000000001" y="1282.06" as="sourcePoint" />
            <mxPoint x="254" y="1282" as="targetPoint" />
            <Array as="points">
              <mxPoint x="236" y="1282" />
              <mxPoint x="236" y="1282" />
            </Array>
          </mxGeometry>
        </mxCell>
        <mxCell id="XL3TBwz9Qjr_CS2KYYFU-79" style="edgeStyle=orthogonalEdgeStyle;rounded=0;orthogonalLoop=1;jettySize=auto;html=1;fillColor=#6a00ff;startArrow=none;startFill=0;endArrow=classic;endFill=1;elbow=vertical;curved=1;strokeColor=#3700CC;exitX=1.06;exitY=0.6;exitDx=0;exitDy=0;exitPerimeter=0;" edge="1" parent="1">
          <mxGeometry relative="1" as="geometry">
            <mxPoint x="194" y="1323.06" as="sourcePoint" />
            <mxPoint x="254" y="1323" as="targetPoint" />
            <Array as="points">
              <mxPoint x="236" y="1323" />
              <mxPoint x="236" y="1323" />
            </Array>
          </mxGeometry>
        </mxCell>
        <mxCell id="XL3TBwz9Qjr_CS2KYYFU-80" style="edgeStyle=orthogonalEdgeStyle;rounded=0;orthogonalLoop=1;jettySize=auto;html=1;fillColor=#d80073;startArrow=none;startFill=0;endArrow=classic;endFill=1;elbow=vertical;curved=1;strokeColor=#A50040;exitX=1.06;exitY=0.6;exitDx=0;exitDy=0;exitPerimeter=0;" edge="1" parent="1">
          <mxGeometry relative="1" as="geometry">
            <mxPoint x="194" y="1364.06" as="sourcePoint" />
            <mxPoint x="254" y="1364" as="targetPoint" />
            <Array as="points">
              <mxPoint x="236" y="1364" />
              <mxPoint x="236" y="1364" />
            </Array>
          </mxGeometry>
        </mxCell>
        <mxCell id="XL3TBwz9Qjr_CS2KYYFU-81" value="acesso do usuário à aplicação" style="text;html=1;strokeColor=#005700;fillColor=#008a00;align=center;verticalAlign=middle;whiteSpace=wrap;rounded=0;fontColor=#ffffff;" vertex="1" parent="1">
          <mxGeometry x="272" y="1266" width="192" height="28" as="geometry" />
        </mxCell>
        <mxCell id="XL3TBwz9Qjr_CS2KYYFU-82" value="envio de notificação" style="text;html=1;strokeColor=#3700CC;fillColor=#6a00ff;align=center;verticalAlign=middle;whiteSpace=wrap;rounded=0;fontColor=#ffffff;" vertex="1" parent="1">
          <mxGeometry x="272" y="1308" width="192" height="28" as="geometry" />
        </mxCell>
        <mxCell id="XL3TBwz9Qjr_CS2KYYFU-83" value="gravação no banco de dados" style="text;html=1;strokeColor=#A50040;fillColor=#d80073;align=center;verticalAlign=middle;whiteSpace=wrap;rounded=0;fontColor=#ffffff;" vertex="1" parent="1">
          <mxGeometry x="272" y="1351" width="192" height="28" as="geometry" />
        </mxCell>
      </root>
    </mxGraphModel>
  </diagram>
</mxfile>
